<svg id="hclogo" xmlns="http://www.w3.org/2000/svg" viewBox="0 0 1199.06 229.61"><path class="cls-1" d="M588.53,97.13A22.08,22.08,0,0,0,581,92a26.94,26.94,0,0,0-19.57,0,22.12,22.12,0,0,0-7.52,5.14,22.47,22.47,0,0,0-4.8,7.83,29.8,29.8,0,0,0,0,19.73,22.58,22.58,0,0,0,4.8,7.79,22,22,0,0,0,7.52,5.13,26.94,26.94,0,0,0,19.57,0,21.92,21.92,0,0,0,7.51-5.13,22.75,22.75,0,0,0,4.81-7.79,30,30,0,0,0,0-19.73A22.65,22.65,0,0,0,588.53,97.13Z"/><path class="cls-1" d="M943,97.13A22,22,0,0,0,935.45,92a26.94,26.94,0,0,0-19.57,0,22,22,0,0,0-7.51,5.14,22.5,22.5,0,0,0-4.81,7.83,29.8,29.8,0,0,0,0,19.73,22.6,22.6,0,0,0,4.81,7.79,21.82,21.82,0,0,0,7.51,5.13,26.94,26.94,0,0,0,19.57,0,21.82,21.82,0,0,0,7.51-5.13,22.75,22.75,0,0,0,4.81-7.79,29.8,29.8,0,0,0,0-19.73A22.65,22.65,0,0,0,943,97.13Z"/><path class="cls-1" d="M220.85,97.13A22,22,0,0,0,213.34,92a26.94,26.94,0,0,0-19.57,0,22,22,0,0,0-7.51,5.14,22.65,22.65,0,0,0-4.81,7.83,29.8,29.8,0,0,0,0,19.73,22.75,22.75,0,0,0,4.81,7.79,21.82,21.82,0,0,0,7.51,5.13,26.94,26.94,0,0,0,19.57,0,21.82,21.82,0,0,0,7.51-5.13,22.6,22.6,0,0,0,4.81-7.79,29.8,29.8,0,0,0,0-19.73A22.5,22.5,0,0,0,220.85,97.13Z"/><path class="cls-1" d="M0,0V229.61H1199.06V0ZM143,153.07H126.15V120H93.4v33.08H76.54V76.53H93.4v28.54h32.75V76.53H143Zm98.75-21.62a36.49,36.49,0,0,1-8.59,12.7,38,38,0,0,1-13.08,8.06,50.08,50.08,0,0,1-33.08,0,37.8,37.8,0,0,1-13.08-8.06,36.51,36.51,0,0,1-8.6-12.7,43.29,43.29,0,0,1-3.08-16.65,43.36,43.36,0,0,1,3.08-16.65,36.61,36.61,0,0,1,8.6-12.7,37.78,37.78,0,0,1,13.08-8,50.08,50.08,0,0,1,33.08,0,38,38,0,0,1,13.08,8,36.58,36.58,0,0,1,8.59,12.7,43.36,43.36,0,0,1,3.08,16.65A43.29,43.29,0,0,1,241.77,131.45Zm86.86-7.89a36.9,36.9,0,0,1-2.05,12.54,27.61,27.61,0,0,1-6.11,9.94,28,28,0,0,1-10.11,6.6,42.37,42.37,0,0,1-28,0,28.09,28.09,0,0,1-10.11-6.6,27.45,27.45,0,0,1-6.1-9.94,36.9,36.9,0,0,1-2.06-12.54v-47H281v46.38a18.72,18.72,0,0,0,1.13,6.59,15.84,15.84,0,0,0,3.19,5.25,14.47,14.47,0,0,0,4.92,3.46,15.42,15.42,0,0,0,6.22,1.24,15.07,15.07,0,0,0,6.16-1.24,14.63,14.63,0,0,0,4.86-3.46,15.84,15.84,0,0,0,3.19-5.25,18.5,18.5,0,0,0,1.14-6.59V76.53h16.86ZM399.11,141a22.38,22.38,0,0,1-6.43,7.89,27.23,27.23,0,0,1-9.4,4.65,43.07,43.07,0,0,1-25.14-.75,34.94,34.94,0,0,1-11.89-7.35l12-13.19a17.57,17.57,0,0,0,6.54,5.35,18.68,18.68,0,0,0,8.16,1.89,18.25,18.25,0,0,0,4.17-.49,13.46,13.46,0,0,0,3.78-1.46,8,8,0,0,0,2.7-2.48,6.17,6.17,0,0,0,1-3.57A6.47,6.47,0,0,0,382,126a24.33,24.33,0,0,0-6.65-3.4q-4-1.41-8.65-2.81A38.85,38.85,0,0,1,358,116a20.7,20.7,0,0,1-6.64-6.27q-2.65-3.89-2.65-10.27a23,23,0,0,1,2.43-10.81,23.33,23.33,0,0,1,6.49-7.78A28.29,28.29,0,0,1,367,76.15a38.44,38.44,0,0,1,10.92-1.56,42.81,42.81,0,0,1,12.54,1.84,29,29,0,0,1,10.92,6.16L389.82,95.24a12,12,0,0,0-5.57-3.84,19.94,19.94,0,0,0-6.65-1.25,17.36,17.36,0,0,0-3.78.44,14.61,14.61,0,0,0-3.68,1.35,8,8,0,0,0-2.81,2.43,6.16,6.16,0,0,0-1.08,3.68,6.08,6.08,0,0,0,2.6,5.29,24.44,24.44,0,0,0,6.54,3.14c2.63.86,5.46,1.73,8.48,2.59a35,35,0,0,1,8.49,3.68,20,20,0,0,1,6.54,6.38q2.6,4,2.59,10.7A24.53,24.53,0,0,1,399.11,141Zm77.3,12.11h-54V76.53h52V92.1H439.33v14.27h33.19v15.57H439.33V137.5h37.08Zm133-21.62a36.51,36.51,0,0,1-8.6,12.7,37.8,37.8,0,0,1-13.08,8.06,50.08,50.08,0,0,1-33.08,0,38,38,0,0,1-13.08-8.06,36.49,36.49,0,0,1-8.59-12.7,43.1,43.1,0,0,1-3.08-16.65A43.17,43.17,0,0,1,533,98.15a36.58,36.58,0,0,1,8.59-12.7,38,38,0,0,1,13.08-8,50.08,50.08,0,0,1,33.08,0,37.78,37.78,0,0,1,13.08,8,36.61,36.61,0,0,1,8.6,12.7,43.36,43.36,0,0,1,3.08,16.65A43.29,43.29,0,0,1,609.45,131.45ZM683.77,92.1H649.28v15.57h31.89v15.56H649.28v29.84H632.42V76.53h51.35Zm109.58,59.67A38,38,0,0,1,778,155a47.17,47.17,0,0,1-16.53-2.81,37.93,37.93,0,0,1-13.09-8.06,36.49,36.49,0,0,1-8.59-12.7,43.29,43.29,0,0,1-3.08-16.65,43.36,43.36,0,0,1,3.08-16.65,36.58,36.58,0,0,1,8.59-12.7,37.91,37.91,0,0,1,13.09-8A46.94,46.94,0,0,1,778,74.59a41.12,41.12,0,0,1,6.76.59,37.2,37.2,0,0,1,6.92,1.89,31.14,31.14,0,0,1,6.54,3.46,26.29,26.29,0,0,1,5.62,5.3l-13,10.59a16.57,16.57,0,0,0-6.11-4.64,20.18,20.18,0,0,0-8.38-1.63,20.93,20.93,0,0,0-15.83,7,23.73,23.73,0,0,0-4.65,7.83,29.8,29.8,0,0,0,0,19.73,24.61,24.61,0,0,0,4.59,7.79,20.78,20.78,0,0,0,6.87,5.13,19.78,19.78,0,0,0,8.48,1.84,19,19,0,0,0,9.19-2.16,18.24,18.24,0,0,0,6.6-6.06l14,10.49A29.23,29.23,0,0,1,793.35,151.77Zm78,1.3H823.29V76.53h16.87v61H871.4Zm92.48-21.62a36.51,36.51,0,0,1-8.6,12.7,37.8,37.8,0,0,1-13.08,8.06,50.08,50.08,0,0,1-33.08,0A38,38,0,0,1,896,144.15a36.49,36.49,0,0,1-8.59-12.7,43.1,43.1,0,0,1-3.08-16.65,43.17,43.17,0,0,1,3.08-16.65A36.58,36.58,0,0,1,896,85.45a38,38,0,0,1,13.08-8,50.08,50.08,0,0,1,33.08,0,37.78,37.78,0,0,1,13.08,8,36.61,36.61,0,0,1,8.6,12.7A43.36,43.36,0,0,1,967,114.8,43.29,43.29,0,0,1,963.88,131.45Zm75.83-40h-21.83v61.62H1001V91.45H979.17V76.53h60.54Zm82.81,61.62h-16.87V120H1072.9v33.08H1056V76.53h16.86v28.54h32.75V76.53h16.87Z"/></svg>